<svg width="126" height="15" viewBox="0 0 126 15" fill="none" xmlns="http://www.w3.org/2000/svg">
<path d="M11.3018 14H8.06396L3.27686 5.59473V14H0.0205078V0.492188H3.27686L8.05469 8.89746V0.492188H11.3018V14ZM46.7388 8.27588H41.6177V11.4951H47.6665V14H38.3613V0.492188H47.6851V3.00635H41.6177V5.85449H46.7388V8.27588ZM84.458 8.9624L86.0073 0.492188H89.2358L86.3691 14H82.9922L81.1831 6.2998L79.4111 14H76.0435L73.1675 0.492188H76.4053L77.9546 8.9624L79.8101 0.492188H82.5747L84.458 8.9624ZM122.474 10.4097C122.474 9.93343 122.304 9.56234 121.964 9.29639C121.63 9.03044 121.039 8.75521 120.192 8.4707C119.345 8.1862 118.652 7.91097 118.114 7.64502C116.363 6.78532 115.488 5.604 115.488 4.10107C115.488 3.3527 115.705 2.69401 116.138 2.125C116.577 1.5498 117.195 1.10449 117.993 0.789062C118.791 0.467448 119.688 0.306641 120.684 0.306641C121.655 0.306641 122.524 0.479818 123.291 0.826172C124.064 1.17253 124.664 1.66732 125.09 2.31055C125.517 2.94759 125.73 3.67741 125.73 4.5H122.483C122.483 3.94954 122.313 3.52279 121.973 3.21973C121.639 2.91667 121.185 2.76514 120.609 2.76514C120.028 2.76514 119.567 2.89502 119.227 3.15479C118.893 3.40837 118.726 3.73307 118.726 4.12891C118.726 4.47526 118.912 4.79069 119.283 5.0752C119.654 5.35352 120.306 5.64421 121.24 5.94727C122.174 6.24414 122.941 6.56576 123.541 6.91211C125.001 7.75326 125.73 8.91292 125.73 10.3911C125.73 11.5724 125.285 12.5002 124.395 13.1743C123.504 13.8485 122.282 14.1855 120.73 14.1855C119.635 14.1855 118.643 13.9907 117.752 13.6011C116.868 13.2052 116.2 12.6672 115.748 11.9868C115.303 11.3003 115.08 10.5117 115.08 9.62109H118.346C118.346 10.3447 118.531 10.8797 118.902 11.2261C119.28 11.5662 119.889 11.7363 120.73 11.7363C121.268 11.7363 121.692 11.6219 122.001 11.3931C122.316 11.158 122.474 10.8302 122.474 10.4097Z" fill="white"/>
</svg>
